<?xml version="1.0"?>
<svg version="1.1" xmlns="http://www.w3.org/2000/svg" xmlns:xlink="http://www.w3.org/1999/xlink" width="600.6" height="71">
    <desc iVinci="yes" version="4.5" gridStep="20" showGrid="no" snapToGrid="no" codePlatform="0"/>
    <g id="Layer1" opacity="1">
        <g id="Shape1">
            <desc shapeID="1" type="0" basicInfo-basicType="0" basicInfo-roundedRectRadius="12" basicInfo-polygonSides="6" basicInfo-starPoints="5" bounding="rect(-160.7,-32.2,321.4,64.4)" text="" font-familyName="" font-pixelSize="20" font-bold="0" font-underline="0" font-alignment="1" strokeStyle="0" markerStart="0" markerEnd="0" shadowEnabled="0" shadowOffsetX="0" shadowOffsetY="2" shadowBlur="4" shadowOpacity="160" blurEnabled="0" blurRadius="4" transform="matrix(1,0,0,1,160.7,32.2)" pers-center="0,0" pers-size="0,0" pers-start="0,0" pers-end="0,0" locked="0" mesh="" flag=""/>
            <path id="shapePath1" d="M160.2,26.7 C156.5,23.7 151.7,21.8 146.7,21.8 C141.9,21.8 137.7,23.3 134.2,25.8 L134.2,0.300001 L125.4,0.300001 L125.4,43.1 C125.4,44.9 125.6,46.8 126.1,48.5 C128.5,57.6 136.7,64.4 146.7,64.4 C158.4,64.4 167.9,55 167.9,43.2 C167.9,36.6 164.9,30.8 160.2,26.7 M159.1,43.1 C159.1,46.5 157.8,49.7 155.5,51.9 C153.3,54.1 150.1,55.6 146.7,55.6 C143.3,55.6 140.1,54.3 137.9,51.9 C136.6,50.6 135.4,48.9 134.9,46.8 C134.6,45.6 134.4,44.4 134.4,43.2 C134.4,39.8 135.7,36.6 138,34.4 C140.2,32.2 143.4,30.7 146.8,30.7 C150.2,30.7 153.2,32 155.6,34.3 C157.6,36.7 159.1,39.6 159.1,43.1 M255.4,21.8 C243.7,21.8 234.2,31.2 234.1,43 C234.1,54.7 243.5,64.2 255.4,64.2 C267.1,64.2 276.6,54.8 276.6,43 C276.6,31.2 267,21.8 255.4,21.8 M264.2,51.8 C262,54 258.8,55.5 255.4,55.5 C252,55.5 248.8,54.2 246.6,51.8 C244.4,49.6 243,46.4 242.9,43 C242.9,39.6 244.2,36.4 246.6,34.2 C248.8,32 252,30.5 255.4,30.5 C258.8,30.5 262,31.8 264.2,34.2 C266.4,36.4 267.8,39.6 267.8,43 C267.7,46.5 266.4,49.6 264.2,51.8 M300.2,21.8 C288.5,21.8 279,31.2 279,43 C279,54.7 288.4,64.2 300.2,64.2 C311.9,64.2 321.4,54.8 321.4,43 C321.4,31.2 311.8,21.8 300.2,21.8 M308.8,51.8 C306.6,54 303.4,55.5 300,55.5 C296.6,55.5 293.4,54.2 291.2,51.8 C289,49.6 287.6,46.4 287.6,43 C287.6,39.6 288.9,36.4 291.2,34.2 C293.4,32 296.6,30.5 300,30.5 C303.4,30.5 306.6,31.8 308.8,34.2 C311,36.4 312.4,39.6 312.5,43 C312.5,46.5 311.2,49.6 308.8,51.8 M212.7,43.1 C212.7,31.4 203.3,21.9 191.5,21.9 C179.7,21.9 170.3,31.3 170.3,43.1 C170.3,54.9 179.9,64.2 191.5,64.2 C196.3,64.2 200.5,62.7 204,60.2 L204,63.9 L212.8,63.9 L212.7,43.1 M200.3,51.8 C198.1,54 194.9,55.5 191.5,55.5 C188.1,55.5 184.9,54.2 182.7,51.8 C180.5,49.6 179.1,46.4 179,43 C179,39.6 180.3,36.4 182.7,34.2 C184.9,32 188.1,30.6 191.5,30.5 C194.9,30.5 198.1,31.8 200.3,34.2 C202.5,36.4 204,39.6 204,43 C203.9,46.5 202.6,49.6 200.3,51.8 M223.9,43.1 L223.9,3.8147e-06 L215.1,3.8147e-06 L215.1,43.1 C215.1,54.8 224.5,64.3 236.3,64.3 L236.3,55.5 C232.9,55.5 229.7,54.2 227.5,51.8 C225.3,49.6 223.9,46.5 223.9,43.1 M100.6,63.9 C106.5,63.9 111.8,61.5 115.7,57.6 C119.6,53.7 122,48.5 122,42.5 L122,22.3 L113.2,22.3 L113.2,42.8 C113.2,46.2 111.9,49.4 109.6,51.6 C107.4,53.8 104.2,55.3 100.8,55.3 C97.4,55.3 94.2,53.9 92,51.6 C89.8,49.4 88.4,46.4 88.3,42.8 L88.3,22.3 L79.3,22.3 L79.3,42.8 L79.5,42.8 C79.3,54.5 88.8,63.9 100.6,63.9 M33.1,39.4 C33.8,35.7 35.2,32.3 37.5,29.4 C33.6,24.8 27.8,21.8 21.3,21.8 C15.4,21.8 10.1,24.2 6.2,28.1 C2.3,32 0,37.4 0,43.1 L0,63.6 L8.8,63.6 L8.8,43.1 C8.8,39.7 10.1,36.5 12.5,34.3 C14.7,32.1 17.9,30.6 21.3,30.6 C24.7,30.6 27.9,31.9 30.1,34.2 C31.5,35.9 32.5,37.5 33.1,39.4 M63.8,34.7 C66,36.9 67.4,39.9 67.5,43.5 L67.5,63.9 L76.5,63.9 L76.5,43.5 L76.3,43.5 C76.3,31.8 66.9,22.3 55.1,22.3 C49.2,22.3 43.9,24.7 40,28.6 C36.1,32.5 33.7,37.7 33.7,43.7 L33.7,63.9 L42.6,63.9 L42.6,43.5 C42.6,40.1 43.9,36.9 46.3,34.7 C48.5,32.5 51.7,31 55.1,31 C58.5,31.1 61.5,32.5 63.8,34.7 M317.1,21.8 C319.3,21.8 321.1,20.1 321.1,17.8 C321.1,15.6 319.4,13.8 317.1,13.8 C314.9,13.8 313.1,15.5 313.1,17.8 C313.2,20.1 314.9,21.8 317.1,21.8 M317.1,14.4 C318.9,14.4 320.5,15.9 320.5,17.8 C320.5,19.6 319,21.2 317.1,21.2 C315.3,21.2 313.7,19.7 313.7,17.8 C313.7,15.9 315.2,14.4 317.1,14.4 M316.3,18.1 L317.3,18.1 L318.6,20.2 L319.3,20.2 L318,18.1 C318.7,17.9 319.2,17.6 319.2,16.8 C319.2,15.9 318.7,15.5 317.7,15.5 L316,15.5 L316,20.1 L316.5,20.1 L316.5,18.3 L316.3,18.1 M316.3,16 L317.3,16 C317.8,16 318.3,16.2 318.3,16.9 C318.3,17.8 317.6,17.8 317,17.8 L316.3,17.8 L316.3,16 Z" style="stroke:none;fill-rule:nonzero;fill:#ffffff;fill-opacity:1;"/>
        </g>
    </g>
</svg>
