<?xml version="1.0" encoding="utf-8"?>
<!-- Generator: Adobe Illustrator 18.1.1, SVG Export Plug-In . SVG Version: 6.00 Build 0)  -->
<svg version="1.1" id="Layer_1" xmlns="http://www.w3.org/2000/svg" xmlns:xlink="http://www.w3.org/1999/xlink" x="0px" y="0px"
	 viewBox="-141 344 328 106" enable-background="new -141 344 328 106" xml:space="preserve">
<path id="path-1" fill="#FFFFFF" d="M182.7,366.3c-2.2,0-4-1.7-4.1-4.1c0-2.4,1.9-4.1,4.1-4.1c2.4,0,4.1,1.9,4.1,4.1
	C186.8,364.6,184.9,366.3,182.7,366.3z M182.7,358.7c-1.9,0-3.4,1.6-3.4,3.5c0,1.9,1.5,3.5,3.4,3.5c1.9,0,3.4-1.6,3.4-3.5
	C186.1,360.2,184.6,358.7,182.7,358.7z M184.2,364.6l-1.4-2.1H182v1.9h-0.5v-4.7h1.7c1,0,1.5,0.5,1.5,1.4c0,0.9-0.5,1.2-1.2,1.4
	l1.4,2.1H184.2z M183.9,361.3c0-0.7-0.5-0.9-1-0.9h-1v1.7h0.7C183.2,362.1,183.9,362.1,183.9,361.3z M187,387.9
	c0,11.9-9.6,21.6-21.5,21.6c-11.9,0-21.5-9.7-21.5-21.6c0-11.9,9.6-21.6,21.5-21.6C177.3,366.3,187,376,187,387.9z M174.2,378.9
	c-2.2-2.4-5.5-3.8-9-3.8c-3.4,0-6.7,1.6-9,3.8c-2.2,2.2-3.6,5.5-3.6,9c0,3.5,1.4,6.7,3.6,9c2.2,2.4,5.5,3.8,9,3.8
	c3.4,0,6.7-1.6,9-3.8c2.4-2.2,3.8-5.4,3.8-9C177.9,384.4,176.5,381.1,174.2,378.9z M119.9,409.5c-12,0-21.7-9.7-21.7-21.6
	c0.2-11.9,9.8-21.6,21.7-21.6c11.9,0,21.5,9.7,21.5,21.6C141.4,399.8,131.7,409.5,119.9,409.5z M128.8,378.9c-2.2-2.4-5.5-3.8-9-3.8
	c-3.4,0-6.7,1.6-9,3.8c-2.4,2.2-3.8,5.5-3.8,9c0.2,3.5,1.5,6.7,3.8,9c2.2,2.4,5.5,3.8,9,3.8c3.4,0,6.7-1.6,9-3.8
	c2.2-2.2,3.6-5.4,3.6-9C132.4,384.4,131,381.1,128.8,378.9z M100.4,409.7c-11.9,0-21.5-9.7-21.5-21.6V344h9v44.1
	c0,3.5,1.4,6.6,3.6,8.8c2.2,2.4,5.5,3.8,9,3.8V409.7z M67.7,405.5c-3.6,2.6-7.9,4.1-12.7,4.1c-11.9,0-21.5-9.7-21.5-21.6
	s9.6-21.6,21.5-21.6c11.9,0,21.5,9.7,21.5,21.6l0.2,21.3h-9V405.5z M63.7,378.9c-2.2-2.4-5.5-3.8-9-3.8c-3.4,0.2-6.7,1.6-9,3.8
	c-2.4,2.2-3.8,5.5-3.8,9c0.2,3.5,1.5,6.7,3.8,9c2.2,2.4,5.5,3.8,9,3.8c3.4,0,6.7-1.6,9-3.8c2.4-2.2,3.8-5.4,3.8-9
	C67.5,384.4,66,381.1,63.7,378.9z M18,436c0.4,4,3.2,6.2,6.4,6.2c2.5,0,4.3-1,5.8-2.6l1.7,1.5c-1.8,2.1-4.1,3.4-7.5,3.4
	c-5,0-9.1-3.9-9.1-9.6c0-5.3,3.7-9.6,8.8-9.6c5.4,0,8.5,4.3,8.5,9.7c0,0.2,0,0.5,0,0.9H18z M24,427.8c-3.2,0-5.6,2.7-5.9,6.2h11.8
	C29.5,430.7,27.6,427.8,24,427.8z M9.2,409.8c-10.2,0-18.6-6.9-21-16.2c-0.5-1.7-0.7-3.6-0.7-5.5v-43.7h9v26.1
	c3.6-2.6,7.9-4.1,12.7-4.1c5.2,0,10,1.9,13.8,5c4.8,4.1,7.9,10,7.7,16.9C30.7,400.1,21,409.8,9.2,409.8z M18.3,379.1
	c-2.4-2.2-5.5-3.6-9-3.6c-3.4,0-6.7,1.6-9,3.8c-2.2,2.2-3.6,5.5-3.6,9c0,1.2,0.2,2.4,0.5,3.6c0.5,2.1,1.7,3.8,3.1,5.2
	c2.2,2.4,5.5,3.8,9,3.8c3.4,0,6.7-1.6,9-3.8c2.2-2.2,3.6-5.5,3.6-9C21.9,384.4,20.4,381.5,18.3,379.1z M-22.1,436.9v7.3h-2.7v-18.3
	h2.7v4.8c1.3-3,4-5.2,7.4-5.1v2.9h-0.2C-18.8,428.5-22.1,431.4-22.1,436.9z M-37.7,409.3c-12.1,0-21.7-9.7-21.5-21.6h-0.2v-20.9h9.1
	v20.9c0.2,3.6,1.5,6.7,3.8,9c2.2,2.4,5.5,3.8,9,3.8s6.7-1.6,9-3.8c2.2-2.2,3.6-5.5,3.6-9v-20.9h9v20.7c0,6-2.4,11.4-6.4,15.4
	C-26.3,406.9-31.6,409.3-37.7,409.3z M-52.4,425.5v2.9h-0.2c-4,0-7.2,2.9-7.2,8.4v7.3h-2.7v-18.3h2.7v4.8
	C-58.5,427.6-55.8,425.4-52.4,425.5z M-71.4,388.4c-0.2-3.6-1.5-6.7-3.8-9c-2.2-2.2-5.3-3.6-8.8-3.8c-3.4,0-6.7,1.6-9,3.8
	c-2.4,2.2-3.8,5.5-3.8,9v20.9h-9v-20.7c0-6,2.4-11.4,6.4-15.4c4-4,9.3-6.4,15.3-6.4c11.9,0,21.5,9.7,21.5,21.6h0.2v20.9h-9.1V388.4z
	 M-109.4,378.9c-2.2-2.2-5.5-3.6-9-3.6c-3.4,0-6.7,1.6-9,3.8c-2.4,2.2-3.8,5.5-3.8,9V409h-9v-20.9c0-5.9,2.4-11.4,6.4-15.4
	c4-4,9.3-6.4,15.3-6.4c6.7,0,12.6,3.1,16.5,7.8c-2.4,2.9-3.8,6.4-4.5,10.2C-107,382.4-108.1,380.6-109.4,378.9z M-132.3,425.5
	c5.4,0,8.5,4.3,8.5,9.7c0,0.2,0,0.5,0,0.9h-14.5c0.4,4,3.2,6.2,6.4,6.2c2.5,0,4.3-1,5.7-2.6l1.7,1.5c-1.8,2.1-4.1,3.4-7.5,3.4
	c-5,0-9.1-3.9-9.1-9.6C-141,429.7-137.3,425.5-132.3,425.5z M-126.5,434c-0.3-3.3-2.2-6.2-5.8-6.2c-3.2,0-5.6,2.7-5.9,6.2H-126.5z
	 M-116.3,429.1c1.2-2,3.1-3.6,6.2-3.6c4.4,0,7,3,7,7.3v11.4h-2.7v-10.7c0-3.4-1.8-5.5-5-5.5c-3.1,0-5.5,2.3-5.5,5.7v10.5h-2.7v-18.3
	h2.7V429.1z M-96.3,420.3h2.7v5.5h5.8v2.4h-5.8V439c0,2.2,1.2,3,3.1,3c0.9,0,1.7-0.2,2.6-0.6v2.3c-1,0.5-2,0.8-3.3,0.8
	c-2.9,0-5.2-1.5-5.2-5.2v-11.1h-2.5v-2.4h2.5V420.3z M-75.8,425.5c5.4,0,8.5,4.3,8.5,9.7c0,0.2,0,0.5,0,0.9h-14.5
	c0.4,4,3.2,6.2,6.4,6.2c2.5,0,4.3-1,5.8-2.6l1.7,1.5c-1.8,2.1-4.1,3.4-7.5,3.4c-5,0-9.1-3.9-9.1-9.6
	C-84.6,429.7-80.9,425.5-75.8,425.5z M-70.1,434c-0.3-3.3-2.2-6.2-5.8-6.2c-3.2,0-5.6,2.7-5.9,6.2H-70.1z M-45.5,429.5
	c1.5-2.2,3.6-4.1,7-4.1c4.4,0,8.7,3.5,8.7,9.5c0,6-4.3,9.6-8.7,9.6c-3.4,0-5.6-1.8-7-3.9v9.2h-2.7v-24h2.7V429.5z M-39,442.1
	c3.5,0,6.4-2.6,6.4-7.1c0-4.4-3-7.1-6.4-7.1c-3.4,0-6.6,2.8-6.6,7.1C-45.6,439.3-42.4,442.1-39,442.1z M-7.3,421.9h-3.1v-3h3.1
	V421.9z M-7.5,444.2h-2.7v-18.3h2.7V444.2z M5,442.2c2.2,0,3.8-1.1,3.8-2.9v-0.1c0-1.8-2.2-2.6-4.6-3.2c-2.9-0.8-6-1.8-6-5.2v-0.1
	c0-3.2,2.6-5.2,6.2-5.2c2.2,0,4.7,0.8,6.6,2l-1.2,2.1c-1.7-1.1-3.6-1.8-5.4-1.8c-2.2,0-3.5,1.1-3.5,2.7v0.1c0,1.7,2.3,2.4,4.7,3.2
	c2.8,0.9,5.9,1.9,5.9,5.2v0.1c0,3.5-2.9,5.5-6.5,5.5c-2.6,0-5.5-1-7.6-2.7l1.4-1.9C0.7,441.4,2.8,442.2,5,442.2z M50.6,428.9
	c1.2-1.8,2.8-3.5,5.9-3.5c3,0,4.9,1.6,5.9,3.6c1.3-2,3.2-3.6,6.4-3.6c4.2,0,6.8,2.8,6.8,7.4v11.3h-2.7v-10.7c0-3.5-1.8-5.5-4.7-5.5
	c-2.8,0-5,2.1-5,5.7v10.6h-2.7v-10.8c0-3.4-1.8-5.5-4.7-5.5c-2.9,0-5.1,2.4-5.1,5.8v10.5h-2.7v-18.3h2.7V428.9z M89.9,425.5
	c5.5,0,9.5,4.3,9.5,9.5c0,5.2-4.1,9.6-9.6,9.6c-5.5,0-9.5-4.3-9.5-9.5C80.4,429.9,84.4,425.5,89.9,425.5z M89.9,442.2
	c4,0,6.7-3.2,6.7-7.1c0-4-2.9-7.2-6.8-7.2c-4,0-6.7,3.2-6.7,7.1C83.2,439,86.1,442.2,89.9,442.2z M107.1,429.5
	c1.5-2.2,3.6-4.1,7-4.1c4.4,0,8.7,3.5,8.7,9.5c0,6-4.3,9.6-8.7,9.6c-3.4,0-5.6-1.8-7-3.9v3.5h-2.7v-25.9h2.7V429.5z M113.6,442.1
	c3.5,0,6.4-2.6,6.4-7.1c0-4.4-3-7.1-6.4-7.1c-3.4,0-6.6,2.8-6.6,7.1C107,439.3,110.2,442.1,113.6,442.1z M131,421.9h-3.1v-3h3.1
	V421.9z M130.8,444.2h-2.7v-18.3h2.7V444.2z M140.1,444.2h-2.7v-25.9h2.7V444.2z M149.6,421.9h-3.1v-3h3.1V421.9z M149.4,444.2h-2.7
	v-18.3h2.7V444.2z M156.6,420.3h2.7v5.5h5.8v2.4h-5.8V439c0,2.2,1.2,3,3.1,3c0.9,0,1.7-0.2,2.6-0.6v2.3c-1,0.5-2,0.8-3.3,0.8
	c-2.9,0-5.2-1.5-5.2-5.2v-11.1h-2.5v-2.4h2.5V420.3z M171.1,425.9l6.6,15.3l5.9-15.3h2.9l-7.7,18.9c-1.6,3.8-3.3,5.2-6.1,5.2
	c-1.5,0-2.6-0.3-3.9-0.9l0.9-2.2c0.9,0.5,1.7,0.7,2.9,0.7c1.6,0,2.6-0.9,3.7-3.4l-8.3-18.2H171.1z"/>
</svg>
